<svg width="30" height="30" viewBox="0 0 30 30" fill="none" xmlns="http://www.w3.org/2000/svg">
<path d="M23.4005 26.1992C23.4005 23.9714 22.5155 21.8348 20.9402 20.2595C19.3649 18.6842 17.2283 17.7992 15.0005 17.7992C12.7726 17.7992 10.6361 18.6842 9.06077 20.2595C7.48546 21.8348 6.60046 23.9714 6.60046 26.1992" stroke="white" stroke-linecap="round" stroke-linejoin="round"/>
<path d="M14.9995 17.8005C18.0923 17.8005 20.5995 15.2933 20.5995 12.2005C20.5995 9.10767 18.0923 6.60046 14.9995 6.60046C11.9067 6.60046 9.39954 9.10767 9.39954 12.2005C9.39954 15.2933 11.9067 17.8005 14.9995 17.8005Z" stroke="white" stroke-linecap="round" stroke-linejoin="round"/>
<path d="M15 29C22.732 29 29 22.732 29 15C29 7.26801 22.732 1 15 1C7.26801 1 1 7.26801 1 15C1 22.732 7.26801 29 15 29Z" stroke="white" stroke-linecap="round" stroke-linejoin="round"/>
</svg>
